# xmcd CD database file
#
# Track frame offsets:
#	150
#	15082
#	27152
#	41712
#	57462
#	72635
#	83025
#	96062
#	110255
#	123435
#	137135
#	150685
#	163867
#	178137
#	192140
#	207820
#	221660
#	233842
#	249330
#	264332
#
# Disc length: 3903 seconds
#
# Revision: 0
# Processed by: cddbd v1.5.1PL0 Copyright (c) Steve Scherf et al.
# Submitted via: CDex 1.51
#
DISCID=120f3d14
DTITLE=Lional Hampton - Air Mail Special
DYEAR=1900
DGENRE=Jazz
TTITLE0=Hampton Stomp
TTITLE1=My Last Affair
TTITLE2=Drum Stomp
TTITLE3=Sho Shiner's Drag
TTITLE4=The Jumpin' Jive
TTITLE5=When Lights Are Low
TTITLE6=Four or Five Times
TTITLE7=Central Avenue Breakdown
TTITLE8=Jach the Bellboy
TTITLE9=Blue Because of You
TTITLE10=A Ghost of a Chance
TTITLE11=Martin on Every Block
TTITLE12=Pig Foot Sonata
TTITLE13=Altitude
TTITLE14=Bouncing at the Beacon
TTITLE15=Chasin' With Chase
TTITLE16=Three-Quarter Boogie
TTITLE17=Hamp's Boogie-Woogie
TTITLE18=Beulah's Boogie
TTITLE19=Air Mail Special
EXTD=
EXTT0=
EXTT1=
EXTT2=
EXTT3=
EXTT4=
EXTT5=
EXTT6=
EXTT7=
EXTT8=
EXTT9=
EXTT10=
EXTT11=
EXTT12=
EXTT13=
EXTT14=
EXTT15=
EXTT16=
EXTT17=
EXTT18=
EXTT19=
PLAYORDER=
